<?xml version="1.0" standalone="no"?>
<!DOCTYPE svg PUBLIC "-//W3C//DTD SVG 20010904//EN"
 "http://www.w3.org/TR/2001/REC-SVG-20010904/DTD/svg10.dtd">
<svg version="1.0" xmlns="http://www.w3.org/2000/svg"
 width="6344.000000pt" height="3014.000000pt" viewBox="0 0 6344.000000 3014.000000"
 preserveAspectRatio="xMidYMid meet">

<g transform="translate(0.000000,3014.000000) scale(0.100000,-0.100000)"
fill="#000000" stroke="none">
<path d="M41456 28413 c-4 -5 -38 -11 -74 -15 -37 -4 -92 -11 -122 -17 -51 -9
-73 -14 -185 -42 -22 -5 -56 -14 -75 -18 -47 -11 -206 -65 -250 -84 -19 -9
-75 -32 -125 -53 -384 -158 -778 -426 -1095 -744 -166 -167 -359 -408 -344
-431 3 -5 94 -9 202 -9 181 0 247 -5 437 -31 278 -38 572 -112 795 -200 30
-11 72 -27 93 -35 40 -15 270 -131 327 -166 76 -46 248 -163 295 -202 90 -75
306 -290 361 -361 138 -178 243 -355 324 -546 51 -120 105 -273 122 -344 10
-43 23 -95 39 -160 10 -38 15 -68 40 -225 18 -119 29 -244 35 -400 3 -85 9
-159 13 -163 8 -8 391 384 537 548 351 396 554 678 697 970 94 192 153 355
181 505 21 117 38 294 31 333 -3 17 -10 73 -15 122 -10 96 -22 168 -38 225
-98 337 -304 666 -632 1003 -138 143 -283 256 -420 328 -30 16 -62 33 -70 38
-125 71 -328 132 -559 167 -100 15 -512 20 -525 7z"/>
<path d="M34194 21968 c-3492 -3493 -4474 -4481 -4483 -4508 -6 -19 -17 -61
-26 -92 -8 -32 -21 -82 -29 -110 -8 -29 -24 -89 -36 -133 -22 -83 -40 -147
-65 -240 -8 -30 -22 -80 -30 -110 -25 -93 -43 -157 -65 -240 -31 -114 -62
-230 -96 -353 -8 -31 -24 -88 -34 -127 -17 -66 -31 -115 -66 -245 -9 -30 -25
-89 -35 -130 -11 -41 -24 -88 -29 -105 -5 -16 -18 -66 -30 -110 -12 -44 -25
-93 -30 -110 -5 -16 -18 -66 -30 -110 -12 -44 -26 -96 -31 -115 -6 -19 -14
-51 -19 -70 -5 -19 -13 -51 -19 -70 -5 -19 -19 -71 -31 -115 -12 -44 -25 -93
-30 -110 -5 -16 -18 -66 -30 -110 -12 -44 -25 -93 -30 -110 -5 -16 -18 -66
-30 -110 -12 -44 -26 -96 -31 -115 -6 -19 -14 -51 -19 -70 -5 -19 -14 -53 -20
-75 -6 -22 -14 -50 -17 -62 -7 -28 -7 -28 -50 -2 -72 45 -118 48 -638 49 -269
0 -587 4 -705 10 -118 5 -341 14 -495 20 -154 6 -342 15 -418 20 -578 41 -686
49 -787 60 -100 11 -229 25 -355 39 -49 6 -135 15 -190 21 -117 13 -228 27
-305 40 -30 5 -91 14 -135 20 -44 6 -107 15 -140 20 -33 5 -94 14 -135 20 -41
6 -95 15 -120 20 -25 4 -74 14 -110 20 -36 6 -83 15 -105 20 -22 5 -69 14
-105 20 -36 6 -83 15 -105 20 -22 5 -67 13 -100 20 -58 11 -193 41 -265 60
-19 5 -109 27 -200 50 -91 22 -208 53 -260 69 -52 16 -142 44 -200 61 -428
128 -947 370 -1230 572 -268 192 -444 399 -509 597 -36 109 -27 321 19 436 97
247 354 552 640 761 30 22 80 59 110 81 68 51 311 206 405 259 39 21 84 47
100 56 49 29 437 223 480 240 22 9 69 30 105 46 99 46 270 118 320 135 25 8
81 30 125 47 44 18 91 36 105 40 14 5 90 32 170 60 194 69 382 131 510 170 58
17 116 35 130 40 36 13 145 44 310 90 80 22 161 45 180 50 19 5 100 28 180 50
80 22 161 45 180 50 19 5 85 24 145 40 287 81 597 184 723 241 34 16 65 29 67
29 9 0 141 62 249 117 207 104 371 218 501 348 72 72 164 213 186 287 43 142
50 232 25 348 -33 157 -95 256 -261 425 -158 160 -295 256 -617 434 -232 127
-589 284 -890 390 -125 44 -240 85 -338 119 -47 17 -132 44 -190 62 -58 17
-116 35 -130 40 -14 5 -72 23 -130 40 -58 17 -116 35 -130 40 -14 5 -61 19
-105 30 -90 24 -143 39 -352 96 -58 15 -495 128 -565 145 -21 5 -56 14 -78 19
-66 17 -112 27 -170 40 -123 27 -173 38 -260 59 -19 5 -60 14 -90 21 -30 7
-73 16 -95 21 -22 5 -62 14 -90 19 -27 5 -70 14 -95 20 -25 6 -67 14 -95 20
-27 5 -90 18 -140 29 -49 10 -126 26 -170 35 -184 37 -222 44 -345 66 -36 6
-85 16 -110 20 -82 16 -227 44 -317 60 -29 6 -79 15 -110 21 -130 24 -195 36
-333 59 -33 6 -87 15 -120 20 -33 6 -87 15 -120 20 -33 6 -87 15 -120 20 -33
6 -86 14 -117 20 -32 5 -89 14 -128 21 -38 6 -89 15 -112 20 -61 13 -202 11
-243 -4 -96 -35 -166 -103 -200 -193 -46 -124 -16 -258 77 -351 70 -71 115
-85 428 -133 39 -6 95 -15 125 -20 30 -5 89 -14 130 -21 41 -6 95 -14 120 -19
25 -5 74 -14 110 -20 36 -6 89 -15 118 -20 28 -6 76 -14 105 -20 28 -5 81 -14
117 -20 114 -20 174 -31 215 -40 22 -5 69 -14 105 -20 36 -6 83 -15 105 -20
22 -5 69 -14 105 -20 36 -6 85 -16 110 -21 25 -5 81 -17 125 -25 44 -9 96 -20
115 -24 19 -4 71 -15 115 -24 44 -9 99 -21 123 -26 23 -6 62 -14 87 -20 25 -5
65 -14 90 -20 25 -5 64 -14 88 -19 23 -5 63 -14 90 -20 26 -6 67 -15 92 -21
25 -5 65 -14 90 -20 25 -5 64 -14 88 -19 110 -24 293 -67 347 -81 19 -5 94
-23 165 -40 151 -36 148 -35 243 -61 39 -10 105 -28 145 -38 110 -30 294 -80
402 -111 19 -5 51 -14 70 -20 19 -5 50 -14 68 -19 50 -14 294 -87 372 -111 39
-12 84 -25 100 -30 97 -27 166 -49 365 -120 80 -29 156 -56 170 -60 14 -5 63
-23 110 -40 47 -17 96 -35 110 -40 70 -23 184 -69 288 -116 29 -13 55 -24 58
-24 3 0 54 -24 113 -54 271 -135 445 -257 503 -351 33 -55 25 -84 -44 -151
-124 -120 -284 -209 -598 -334 -127 -50 -458 -161 -595 -200 -201 -56 -241
-67 -285 -80 -14 -5 -63 -18 -110 -30 -47 -12 -114 -30 -150 -40 -36 -10 -103
-28 -150 -40 -145 -39 -293 -80 -350 -100 -30 -10 -102 -33 -160 -50 -125 -38
-263 -84 -420 -140 -63 -22 -151 -54 -195 -69 -44 -16 -138 -52 -210 -81 -71
-28 -150 -59 -175 -67 -42 -14 -65 -24 -207 -89 -32 -15 -98 -44 -148 -66
-112 -49 -483 -232 -550 -271 -27 -17 -63 -38 -80 -47 -159 -92 -223 -132
-370 -230 -403 -269 -776 -628 -949 -913 -107 -177 -187 -376 -225 -565 -14
-70 -14 -359 0 -436 61 -323 217 -599 480 -851 144 -137 182 -168 364 -294
182 -126 504 -297 720 -383 27 -11 72 -30 100 -42 27 -12 75 -32 105 -43 30
-12 87 -33 125 -48 92 -36 358 -123 535 -175 41 -12 86 -26 100 -30 14 -5 66
-18 115 -30 50 -11 106 -25 125 -30 19 -5 56 -14 83 -19 26 -6 68 -16 95 -22
26 -5 63 -14 82 -19 33 -8 66 -16 175 -40 25 -5 65 -14 90 -20 98 -22 133 -29
200 -40 39 -6 90 -15 115 -20 25 -4 79 -14 120 -20 41 -6 93 -15 115 -20 50
-11 212 -35 388 -59 42 -6 112 -16 155 -22 42 -5 104 -14 137 -19 113 -16 289
-36 530 -60 61 -6 148 -15 195 -20 131 -14 318 -29 510 -40 96 -6 240 -15 320
-20 80 -5 260 -14 400 -20 140 -6 341 -15 445 -20 257 -14 1212 -13 1273 1 26
5 63 14 82 19 19 5 94 23 165 40 72 17 146 35 165 40 19 5 94 23 165 40 72 17
146 35 165 40 19 5 112 28 205 50 94 22 186 45 205 50 19 5 94 23 165 40 72
17 146 35 165 40 19 5 94 23 165 40 72 17 146 35 165 40 19 5 94 23 165 40 72
17 146 35 165 40 19 5 110 27 203 50 92 22 240 58 330 79 89 22 227 56 307 75
80 19 219 53 310 75 91 22 251 60 355 86 105 25 217 52 250 60 l60 15 4537
4537 4536 4536 6 51 c14 113 18 562 6 671 -22 206 -53 349 -125 570 -26 80
-97 249 -127 304 -17 31 -42 76 -55 101 -66 119 -215 309 -340 430 -144 142
-195 184 -305 258 -71 48 -111 63 -120 45 -2 -5 -60 -62 -128 -128 -176 -169
-384 -369 -530 -510 -154 -147 -374 -359 -540 -520 -69 -66 -190 -183 -270
-260 -80 -76 -201 -193 -270 -260 -69 -66 -190 -183 -270 -260 -80 -76 -201
-193 -270 -260 -69 -66 -190 -183 -270 -260 -80 -76 -201 -193 -270 -260 -342
-329 -425 -408 -540 -520 -69 -66 -244 -235 -390 -375 -332 -319 -456 -438
-645 -620 -82 -80 -204 -197 -270 -260 -127 -123 -325 -313 -540 -520 -71 -69
-136 -132 -145 -140 -9 -8 -74 -71 -145 -140 -122 -117 -241 -232 -545 -525
-346 -332 -425 -408 -540 -520 -69 -66 -242 -233 -385 -370 -143 -137 -314
-302 -380 -365 -114 -111 -260 -250 -535 -515 -69 -67 -190 -184 -270 -260
-80 -77 -201 -194 -270 -260 -69 -67 -188 -182 -265 -256 -77 -74 -170 -164
-207 -199 -38 -35 -68 -68 -68 -74 0 -6 49 -43 108 -83 59 -40 172 -117 252
-173 80 -55 204 -141 275 -190 72 -49 177 -122 234 -162 118 -82 102 -53 150
-268 31 -136 37 -164 61 -265 12 -49 25 -109 31 -132 24 -109 31 -140 39 -173
5 -19 13 -55 19 -80 5 -25 14 -65 20 -90 22 -91 21 -92 -54 -172 -39 -40 -135
-143 -215 -228 -79 -85 -178 -190 -220 -232 l-75 -77 -210 -71 c-115 -39 -259
-87 -320 -107 -60 -19 -118 -39 -127 -44 -10 -5 -27 -9 -37 -9 -11 0 -23 -4
-26 -10 -3 -5 -17 -10 -30 -10 -13 0 -27 -4 -30 -10 -3 -5 -17 -10 -30 -10
-13 0 -27 -4 -30 -10 -3 -5 -15 -10 -26 -10 -10 0 -28 -6 -39 -12 -18 -12 -76
43 -706 673 l-686 686 10 54 c6 30 14 68 17 84 3 17 10 46 15 65 5 19 13 55
19 80 15 68 39 173 55 243 8 34 23 96 32 137 l17 75 4758 4760 c2618 2618
4759 4766 4759 4772 0 7 -12 15 -27 18 -16 3 -48 10 -73 15 -102 20 -188 31
-478 60 -56 5 -180 10 -275 10 l-172 0 -4471 -4472z"/>
<path d="M8940 5965 l0 -4115 23 -5 c12 -3 243 -4 512 -3 l490 3 6 1675 c5
1463 8 1686 22 1760 8 47 20 110 25 140 15 80 67 233 109 320 107 223 293 418
488 514 144 71 236 101 410 131 157 28 435 17 595 -24 274 -69 512 -269 630
-526 45 -98 46 -102 69 -180 20 -71 31 -128 50 -246 8 -45 11 -626 11 -1801 0
-1372 3 -1738 13 -1751 11 -16 51 -17 517 -15 l505 3 3 1775 c3 1743 1 1931
-29 2120 -21 139 -34 197 -69 325 -119 430 -421 807 -791 987 -158 77 -202 93
-379 141 -278 75 -623 88 -940 36 -87 -14 -240 -48 -265 -59 -11 -5 -40 -16
-65 -24 -213 -68 -440 -195 -600 -333 -106 -92 -234 -227 -267 -284 -21 -35
-29 -36 -37 -6 -3 12 -6 817 -6 1790 l0 1767 -515 0 -515 0 0 -4115z"/>
<path d="M34747 10073 c-4 -3 -7 -867 -7 -1920 0 -1269 -3 -1913 -10 -1913 -5
0 -10 4 -10 9 0 9 -137 221 -149 231 -3 3 -24 28 -46 55 -147 186 -401 389
-615 492 -158 76 -226 102 -370 143 -25 7 -56 16 -70 20 -244 77 -632 89 -995
31 -367 -58 -767 -239 -1075 -484 -169 -135 -431 -423 -516 -567 -12 -19 -43
-71 -70 -115 -176 -285 -307 -660 -363 -1040 -27 -186 -31 -248 -31 -488 0
-320 16 -486 73 -752 27 -128 86 -338 116 -410 5 -11 13 -32 20 -47 6 -16 15
-38 20 -50 35 -89 106 -236 147 -308 35 -59 198 -300 221 -325 10 -11 39 -45
65 -76 48 -57 220 -228 273 -272 134 -110 354 -252 485 -314 128 -61 204 -90
345 -132 132 -40 205 -58 285 -70 36 -6 95 -15 131 -21 86 -13 538 -13 615 0
113 20 169 31 219 42 49 11 211 61 250 78 11 4 47 18 80 31 67 25 272 129 319
161 272 187 454 377 606 635 30 50 57 90 60 88 4 -2 10 -138 15 -302 4 -164
10 -374 14 -468 l6 -170 487 -3 c474 -2 487 -2 498 17 7 14 9 1291 8 4118 l-3
4098 -511 3 c-281 1 -514 -1 -517 -5z m-1366 -3708 c385 -59 718 -251 989
-570 139 -164 257 -381 329 -605 70 -221 91 -333 109 -589 7 -104 -7 -382 -23
-466 -22 -113 -33 -164 -65 -280 -57 -211 -226 -517 -382 -693 -138 -155 -330
-304 -498 -384 -160 -76 -246 -103 -468 -147 -81 -16 -431 -13 -527 4 -156 29
-360 95 -455 148 -19 11 -60 34 -90 50 -168 93 -391 306 -517 493 -113 167
-197 344 -243 509 -59 213 -76 314 -91 554 -16 237 -3 383 53 636 19 88 23
104 52 195 33 104 110 274 156 345 14 22 31 51 38 65 44 86 245 312 350 392
31 23 59 46 62 49 14 16 138 93 197 123 121 60 250 112 313 127 19 4 58 13 85
20 174 40 454 51 626 24z"/>
<path d="M44462 5963 l3 -4118 510 0 510 0 3 4118 2 4117 -515 0 -515 0 2
-4117z"/>
<path d="M4270 9524 c-122 -8 -385 -39 -455 -54 -22 -5 -65 -14 -95 -20 -92
-20 -148 -35 -355 -102 -109 -35 -95 -29 -285 -122 -162 -79 -234 -121 -335
-195 -101 -74 -250 -207 -301 -268 -27 -32 -52 -60 -55 -63 -16 -13 -148 -196
-169 -233 -120 -220 -181 -375 -221 -567 -40 -187 -43 -219 -43 -465 0 -239 3
-282 36 -445 11 -60 43 -177 60 -225 19 -55 25 -70 68 -160 123 -257 327 -481
610 -672 143 -96 366 -210 576 -292 88 -35 168 -67 179 -72 24 -10 290 -96
430 -138 110 -33 170 -50 438 -120 39 -11 97 -27 127 -36 30 -9 71 -21 90 -25
19 -5 67 -18 105 -30 39 -11 88 -25 110 -31 22 -7 65 -19 95 -29 30 -10 75
-23 100 -30 87 -25 188 -59 281 -95 52 -20 103 -40 114 -45 113 -43 338 -158
427 -217 259 -174 418 -377 479 -613 68 -262 43 -567 -65 -800 -21 -46 -94
-171 -105 -180 -3 -3 -28 -31 -54 -63 -96 -113 -291 -249 -444 -308 -13 -5
-33 -13 -45 -19 -108 -46 -272 -88 -478 -121 -101 -17 -550 -17 -660 -1 -326
48 -498 99 -750 220 -160 77 -295 175 -431 311 -215 217 -355 466 -425 759 -9
40 -21 75 -26 78 -5 4 -28 1 -51 -4 -23 -6 -82 -20 -132 -32 -49 -11 -106 -25
-125 -30 -19 -5 -74 -18 -123 -30 -48 -11 -126 -29 -175 -40 -48 -12 -103 -25
-122 -30 -19 -5 -73 -18 -120 -29 -189 -44 -214 -51 -223 -60 -10 -10 1 -81
23 -151 4 -14 18 -59 30 -100 21 -71 26 -85 50 -145 6 -14 14 -35 19 -47 5
-13 18 -44 30 -70 12 -26 21 -50 21 -52 0 -12 114 -207 173 -296 92 -138 171
-232 304 -360 118 -114 141 -135 223 -196 182 -134 273 -190 442 -272 59 -29
110 -52 113 -52 2 0 34 -14 70 -30 36 -17 70 -30 75 -30 6 0 18 -4 28 -10 29
-16 203 -70 320 -99 168 -42 301 -68 487 -96 92 -13 440 -35 570 -34 121 0
418 19 525 33 19 3 76 10 125 16 86 11 136 20 218 41 20 5 54 13 75 18 20 6
60 15 87 22 125 29 297 87 405 136 338 155 525 280 728 487 151 155 277 329
344 476 9 19 27 60 41 90 128 285 190 694 157 1030 -31 303 -73 464 -178 680
-34 70 -147 248 -195 308 -33 42 -217 223 -267 265 -51 43 -254 183 -315 217
-79 45 -301 157 -345 174 -25 10 -60 24 -77 32 -18 8 -48 20 -65 28 -90 39
-437 161 -533 186 -16 5 -61 18 -100 30 -38 12 -86 26 -105 30 -19 5 -51 13
-70 19 -123 35 -193 55 -255 71 -38 10 -90 24 -115 33 -25 8 -65 19 -90 25
-93 22 -110 27 -260 72 -58 17 -118 35 -135 40 -280 78 -627 220 -800 328
-224 139 -375 317 -440 517 -23 68 -45 207 -45 281 0 82 26 271 44 325 9 24
16 50 16 56 0 7 14 42 30 78 17 36 30 68 30 70 0 3 23 40 51 83 55 83 207 240
279 289 151 102 318 175 515 228 206 55 564 80 775 55 269 -33 307 -40 440
-81 252 -79 422 -167 595 -309 214 -176 376 -431 455 -720 24 -89 31 -101 53
-94 21 7 226 59 287 74 19 5 107 27 195 50 151 39 181 47 273 69 87 21 234 61
242 66 7 5 2 33 -21 115 -24 83 -28 97 -37 125 -5 17 -17 50 -27 75 -9 25 -20
54 -24 65 -26 68 -144 292 -194 369 -210 320 -501 573 -882 766 -189 96 -299
140 -475 190 -25 7 -56 16 -70 20 -35 11 -109 28 -325 75 -53 12 -147 26 -275
40 -119 14 -584 27 -700 19z"/>
<path d="M39780 9524 c-111 -6 -371 -39 -480 -61 -139 -28 -155 -32 -220 -52
-154 -46 -177 -53 -215 -66 -109 -36 -304 -127 -439 -204 -175 -100 -401 -289
-511 -426 -22 -28 -42 -52 -45 -55 -36 -36 -135 -186 -188 -285 -30 -56 -82
-174 -82 -185 0 -6 -4 -18 -10 -28 -5 -9 -18 -44 -28 -77 -111 -349 -131 -697
-61 -1075 20 -107 23 -116 60 -230 54 -168 146 -331 279 -495 201 -247 563
-485 990 -650 52 -20 104 -40 115 -45 102 -41 464 -158 605 -195 14 -3 39 -10
55 -15 17 -5 84 -23 150 -40 66 -17 134 -35 150 -40 106 -31 189 -54 250 -70
39 -10 90 -24 115 -32 25 -9 65 -21 90 -28 96 -27 341 -105 375 -119 50 -21
81 -34 97 -42 10 -5 22 -9 28 -9 26 0 327 -147 428 -209 87 -53 223 -164 281
-227 126 -139 211 -309 240 -479 39 -223 30 -393 -32 -600 -89 -295 -346 -560
-662 -680 -38 -15 -79 -31 -90 -35 -11 -5 -38 -14 -60 -21 -22 -6 -51 -15 -65
-19 -53 -17 -160 -38 -300 -61 -100 -16 -561 -17 -660 -1 -123 20 -192 33
-240 43 -128 29 -130 29 -290 81 -96 30 -280 122 -385 191 -209 139 -370 304
-492 502 -94 155 -155 303 -199 483 -19 78 -20 79 -88 61 -63 -16 -104 -26
-198 -49 -49 -11 -127 -29 -175 -40 -49 -12 -104 -25 -123 -30 -19 -5 -75 -18
-125 -30 -49 -12 -106 -25 -125 -30 -19 -5 -78 -19 -130 -31 -131 -30 -141
-34 -136 -61 13 -62 40 -168 52 -208 8 -25 19 -61 25 -80 6 -19 15 -45 20 -57
5 -13 13 -33 18 -45 35 -89 106 -236 146 -306 28 -49 165 -254 174 -262 3 -3
19 -23 36 -45 53 -73 298 -309 395 -381 230 -171 358 -245 630 -361 157 -67
373 -134 555 -172 171 -36 229 -47 360 -66 90 -13 439 -35 567 -35 227 0 594
33 788 72 171 34 480 121 570 160 14 6 34 14 45 19 40 15 291 139 333 164 275
162 493 365 659 615 102 153 190 341 233 495 70 254 85 365 85 635 -1 210 -8
295 -37 440 -10 49 -17 79 -48 195 -8 32 -38 109 -71 184 -79 177 -184 328
-333 477 -145 145 -235 218 -376 306 -142 88 -310 180 -380 208 -19 7 -57 24
-85 36 -171 76 -569 215 -815 284 -19 5 -75 21 -125 36 -49 14 -121 34 -160
44 -38 10 -104 28 -145 40 -41 11 -118 32 -170 46 -100 26 -218 59 -260 73
-14 5 -45 14 -70 21 -25 7 -65 20 -90 28 -25 8 -58 18 -75 22 -40 11 -241 83
-285 102 -19 9 -56 25 -82 37 -26 11 -50 21 -54 21 -18 0 -215 107 -295 160
-85 58 -192 154 -261 237 -64 76 -133 232 -158 358 -13 68 -8 340 8 420 44
213 123 363 270 513 110 111 123 121 212 176 177 107 330 165 595 221 141 31
492 44 640 25 44 -6 116 -15 160 -21 168 -21 275 -50 450 -119 341 -134 634
-401 776 -707 23 -48 44 -95 48 -103 4 -8 22 -62 40 -120 18 -58 36 -112 41
-120 10 -20 4 -21 275 50 88 23 176 45 195 50 19 5 107 27 195 50 88 23 176
45 195 50 181 43 183 45 161 102 -5 13 -19 57 -31 98 -12 41 -31 97 -41 124
-11 27 -19 53 -19 57 0 18 -108 245 -156 328 -89 155 -250 355 -380 471 -158
142 -276 228 -442 322 -52 29 -270 138 -277 138 -3 0 -24 9 -48 19 -135 63
-507 163 -747 202 -237 39 -607 57 -890 43z"/>
<path d="M53540 8390 c0 -575 -6 -666 -57 -820 -65 -201 -205 -332 -403 -378
-25 -6 -66 -16 -92 -21 -27 -6 -164 -11 -320 -11 -200 0 -277 -3 -286 -12 -18
-18 -17 -781 1 -797 10 -7 172 -12 543 -13 l529 -3 6 -1635 c4 -1071 10 -1654
17 -1690 5 -30 13 -73 17 -95 10 -61 44 -171 78 -260 116 -299 322 -523 602
-655 134 -62 191 -84 265 -100 232 -51 398 -62 870 -58 l375 3 0 405 0 405
-315 6 c-287 6 -367 12 -425 34 -197 73 -334 210 -400 400 -52 150 -49 43 -52
1702 l-4 1543 598 2 598 3 0 405 0 405 -597 3 -598 2 -2 878 -3 877 -472 3
-473 2 0 -530z"/>
<path d="M26675 7249 c-133 -14 -248 -30 -292 -40 -165 -36 -224 -50 -283 -69
-30 -9 -89 -28 -130 -40 -41 -13 -79 -27 -85 -30 -5 -4 -29 -14 -52 -23 -70
-27 -194 -88 -262 -129 -34 -21 -65 -38 -68 -38 -2 0 -51 -32 -108 -71 -357
-242 -660 -612 -839 -1021 -9 -21 -22 -53 -30 -70 -79 -182 -158 -492 -198
-778 -17 -124 -17 -718 0 -845 41 -305 74 -454 147 -680 46 -140 158 -380 242
-517 172 -279 418 -533 705 -726 26 -18 49 -32 53 -32 4 0 25 -13 48 -28 127
-86 408 -203 632 -264 22 -5 51 -14 65 -18 96 -29 321 -63 542 -81 116 -10
192 -10 355 0 208 12 341 31 511 71 23 5 59 14 80 19 51 12 202 63 287 97 77
31 277 131 322 161 15 10 40 25 54 32 77 38 336 249 434 353 190 199 388 497
475 714 13 32 30 70 37 83 15 31 11 38 -35 50 -40 10 -47 12 -352 71 -296 57
-324 63 -452 91 -31 6 -63 9 -71 6 -8 -3 -25 -27 -39 -54 -79 -155 -155 -260
-283 -389 -99 -100 -218 -198 -300 -247 -120 -71 -322 -151 -450 -177 -33 -6
-69 -14 -80 -16 -11 -3 -77 -11 -146 -19 -152 -16 -342 -3 -569 41 -74 14
-247 77 -340 123 -221 111 -430 292 -567 491 -131 191 -230 446 -278 715 -22
128 -37 266 -33 315 l3 45 2050 5 2050 5 7 40 c12 70 8 404 -7 565 -21 221
-34 314 -64 445 -5 22 -12 56 -16 75 -4 19 -10 46 -15 60 -4 14 -13 45 -20 70
-56 199 -135 387 -233 560 -11 19 -29 52 -40 72 -44 82 -188 260 -302 373
-108 108 -296 261 -364 297 -14 7 -53 29 -86 49 -349 206 -838 321 -1347 318
-101 -1 -219 -6 -263 -10z m490 -780 c141 -18 269 -47 350 -79 11 -5 47 -18
80 -31 159 -61 364 -216 496 -374 72 -87 156 -239 206 -375 59 -157 111 -402
104 -487 -1 -16 -3026 -19 -3036 -3 -3 5 -2 27 4 47 5 21 15 63 21 93 45 212
156 461 277 625 197 267 430 423 793 533 62 18 130 31 270 50 94 13 342 14
435 1z"/>
<path d="M58930 7248 c-167 -17 -273 -35 -455 -78 -75 -18 -271 -79 -320 -100
-79 -33 -109 -46 -175 -78 -364 -176 -668 -431 -901 -757 -118 -166 -215 -344
-288 -530 -5 -11 -13 -31 -19 -45 -33 -77 -96 -292 -123 -420 -6 -30 -15 -73
-19 -95 -5 -22 -14 -78 -20 -125 -6 -47 -15 -115 -21 -152 -12 -89 -12 -588 1
-702 25 -222 34 -278 71 -451 61 -283 204 -643 320 -807 11 -14 19 -29 19 -32
0 -9 120 -176 181 -251 71 -88 223 -238 309 -305 36 -28 72 -57 81 -64 26 -21
162 -113 205 -137 68 -39 257 -134 304 -153 25 -10 59 -24 75 -31 62 -27 143
-54 225 -75 47 -12 96 -26 110 -30 95 -29 324 -63 545 -81 155 -13 471 -1 610
22 221 37 474 103 594 155 20 9 45 20 56 24 50 19 267 131 330 170 186 115
408 306 546 470 29 36 57 67 60 70 4 3 47 66 97 141 85 127 195 327 235 429
10 25 22 53 27 62 14 26 -2 31 -215 72 -104 20 -208 41 -230 46 -22 4 -67 14
-100 20 -33 6 -78 15 -100 20 -22 5 -67 14 -100 20 -33 6 -76 16 -96 21 -73
19 -81 15 -118 -59 -207 -404 -606 -716 -1026 -802 -33 -6 -69 -14 -80 -16
-11 -3 -77 -11 -146 -19 -107 -11 -149 -11 -280 1 -85 7 -163 16 -174 18 -11
3 -49 10 -85 17 -102 18 -296 86 -380 132 -19 10 -53 29 -75 40 -187 101 -418
326 -529 517 -151 257 -235 543 -264 892 -4 53 -6 102 -4 107 3 8 616 11 2052
11 1628 0 2050 3 2057 13 12 19 8 531 -6 647 -43 361 -101 608 -207 876 -57
144 -233 461 -274 494 -3 3 -13 15 -21 27 -47 68 -195 227 -294 313 -82 73
-230 176 -347 245 -114 66 -336 160 -463 195 -95 26 -146 39 -195 50 -30 6
-73 15 -95 20 -42 9 -145 22 -307 40 -113 12 -435 11 -558 -2z m493 -778 c164
-23 218 -35 332 -72 201 -67 365 -166 505 -307 206 -206 304 -405 390 -786 8
-36 19 -117 23 -170 2 -20 -4 -20 -1518 -20 l-1520 0 2 30 c3 35 22 129 33
165 4 14 13 45 20 70 18 64 89 246 120 305 95 181 271 390 423 502 123 90 340
188 532 241 42 12 127 26 235 41 92 12 338 13 423 1z"/>
<path d="M16770 7240 c-250 -17 -406 -41 -595 -92 -47 -13 -211 -66 -240 -77
-57 -23 -78 -33 -165 -75 -121 -58 -171 -88 -267 -158 -84 -61 -207 -176 -266
-248 -98 -119 -212 -313 -268 -457 -5 -13 -13 -33 -18 -45 -33 -80 -91 -311
-91 -362 0 -21 18 -26 440 -110 242 -48 448 -90 459 -93 16 -4 20 4 30 64 68
393 265 654 600 794 42 18 90 36 106 40 17 4 48 13 70 19 127 33 216 42 422
43 118 0 231 -5 255 -11 24 -6 70 -16 103 -22 231 -47 443 -174 575 -345 115
-149 181 -365 180 -591 -1 -152 -35 -249 -118 -331 -47 -47 -154 -107 -237
-133 -22 -7 -51 -16 -65 -20 -14 -5 -54 -13 -90 -20 -36 -6 -87 -15 -115 -20
-27 -5 -79 -14 -115 -20 -36 -6 -87 -15 -115 -20 -27 -5 -79 -14 -115 -20 -36
-6 -87 -15 -115 -20 -27 -5 -79 -14 -115 -20 -69 -12 -132 -23 -220 -40 -30
-6 -80 -15 -110 -21 -63 -12 -129 -26 -180 -39 -19 -5 -64 -15 -100 -24 -145
-34 -378 -107 -515 -162 -179 -72 -412 -209 -545 -321 -203 -171 -360 -424
-418 -673 -21 -90 -24 -107 -37 -215 -15 -130 -4 -404 22 -525 8 -41 19 -91
23 -110 4 -19 20 -71 35 -115 101 -295 322 -547 615 -702 133 -70 291 -124
445 -153 33 -6 76 -16 96 -21 20 -5 56 -9 79 -9 23 0 72 -5 107 -12 50 -9 114
-9 286 0 209 12 263 18 397 43 210 40 448 127 665 242 145 77 381 277 505 427
99 119 120 127 139 53 7 -27 17 -56 22 -65 5 -10 9 -22 9 -28 0 -20 62 -144
99 -199 50 -73 140 -158 226 -213 72 -45 157 -88 175 -88 6 0 39 -8 73 -19 34
-10 85 -23 112 -29 88 -20 354 -33 575 -30 l215 3 3 361 2 361 -127 6 c-129 6
-158 12 -246 50 -80 35 -156 131 -189 242 -37 123 -38 161 -38 1349 0 1108 -4
1306 -31 1526 -11 86 -15 109 -45 235 -16 70 -57 202 -74 240 -104 235 -176
343 -334 501 -136 136 -249 218 -409 293 -138 66 -195 91 -207 91 -6 0 -18 4
-28 9 -9 5 -55 19 -102 31 -47 12 -96 26 -110 31 -23 8 -174 34 -340 59 -92
14 -501 20 -650 10z m1410 -2925 c0 -61 -15 -225 -31 -330 -21 -137 -64 -312
-99 -400 -4 -11 -18 -47 -31 -80 -74 -193 -214 -401 -367 -546 -293 -279 -708
-424 -1110 -389 -198 17 -295 41 -417 102 -168 84 -282 223 -331 404 -22 78
-25 330 -5 394 60 200 169 328 371 437 60 32 177 81 225 94 210 55 278 72 320
79 54 10 145 27 210 40 37 7 93 19 200 40 22 4 132 27 245 50 113 23 223 46
245 50 107 21 163 33 200 40 22 4 67 13 100 20 33 6 83 16 110 22 179 36 165
38 165 -27z"/>
<path d="M49005 7244 c-141 -6 -404 -36 -470 -54 -16 -4 -57 -13 -90 -20 -83
-17 -222 -57 -280 -80 -11 -4 -47 -18 -80 -31 -215 -81 -450 -232 -590 -380
-145 -153 -264 -336 -339 -524 -60 -149 -116 -350 -116 -418 0 -32 1 -33 63
-46 34 -7 80 -16 102 -21 22 -5 67 -14 100 -20 33 -6 78 -15 100 -20 22 -5 67
-14 100 -20 73 -14 147 -29 200 -40 22 -5 67 -14 100 -20 33 -6 76 -16 96 -21
20 -5 41 -9 46 -9 5 0 15 37 23 83 47 294 194 533 420 683 41 28 91 57 110 66
89 40 108 48 155 64 54 18 84 25 215 50 104 20 466 23 551 5 30 -6 79 -17 109
-23 320 -63 588 -283 685 -563 25 -72 34 -109 50 -214 38 -238 1 -389 -121
-501 -49 -44 -166 -110 -196 -110 -8 0 -18 -4 -23 -8 -11 -10 -158 -43 -270
-62 -38 -6 -92 -15 -120 -20 -46 -8 -83 -15 -232 -41 -29 -5 -77 -13 -105 -18
-29 -5 -81 -14 -115 -20 -35 -6 -91 -16 -125 -22 -35 -6 -81 -14 -103 -19 -22
-5 -69 -14 -105 -21 -111 -20 -269 -57 -415 -98 -72 -20 -334 -105 -370 -120
-63 -27 -290 -142 -345 -175 -182 -109 -343 -260 -451 -422 -66 -101 -129
-221 -129 -248 0 -8 -4 -17 -9 -20 -5 -3 -11 -16 -14 -28 -3 -13 -10 -41 -16
-63 -36 -130 -61 -310 -61 -430 1 -81 21 -294 35 -370 80 -412 321 -735 683
-915 165 -81 139 -72 337 -129 17 -5 62 -15 100 -21 39 -7 83 -16 99 -21 16
-5 49 -9 74 -9 25 0 74 -5 109 -12 50 -9 115 -9 291 1 125 7 245 16 267 21 22
4 72 14 110 20 178 31 416 110 585 194 236 118 467 307 623 508 41 54 58 67
80 68 16 0 27 -5 27 -13 0 -16 35 -130 52 -167 6 -14 16 -36 22 -50 47 -109
193 -269 301 -331 109 -63 147 -77 355 -129 67 -17 357 -31 570 -28 l215 3 0
360 0 360 -122 7 c-155 8 -245 35 -309 91 -82 72 -115 135 -150 289 -16 66
-18 207 -24 1388 -5 934 -10 1334 -18 1380 -7 36 -17 94 -23 130 -22 128 -74
305 -121 410 -44 99 -54 118 -101 195 -105 171 -272 341 -452 461 -54 36 -263
144 -279 144 -3 0 -25 9 -49 19 -39 19 -128 47 -222 73 -22 6 -51 14 -65 18
-26 8 -98 22 -210 39 -36 6 -92 15 -125 20 -63 10 -479 21 -600 15z m1350
-2884 c8 -12 -10 -255 -26 -355 -30 -192 -66 -332 -118 -465 -124 -313 -322
-566 -576 -737 -252 -169 -607 -260 -911 -234 -162 14 -259 32 -329 60 -234
95 -368 238 -427 456 -8 32 -13 106 -13 205 1 166 11 214 71 331 56 107 190
225 340 298 114 56 116 57 199 81 67 20 92 27 185 50 109 27 96 25 735 150 99
20 163 32 200 40 22 4 67 13 100 20 33 7 78 16 100 20 22 4 67 13 100 20 33 7
78 16 100 20 22 4 67 13 100 20 33 7 76 15 95 20 51 11 68 11 75 0z"/>
<path d="M23505 7204 c-151 -13 -254 -30 -377 -64 -21 -5 -53 -14 -70 -19
-111 -29 -383 -158 -498 -234 -123 -82 -267 -207 -362 -314 -45 -50 -168 -235
-187 -281 -7 -17 -17 -32 -22 -32 -5 0 -10 201 -11 448 l-3 447 -475 3 c-261
1 -485 0 -497 -3 l-23 -5 0 -2650 0 -2650 23 -5 c12 -3 243 -4 512 -3 l490 3
5 1555 c4 1198 9 1569 18 1615 7 33 18 85 23 115 18 95 55 230 78 285 5 11 17
38 26 60 57 134 160 290 251 381 63 63 235 185 304 216 118 54 151 67 205 85
80 27 118 36 315 72 67 12 270 31 365 34 l70 2 3 466 c2 366 -1 468 -10 476
-8 5 -68 4 -153 -3z"/>
</g>
</svg>
