<?xml version="1.0" standalone="no"?>
<!DOCTYPE svg PUBLIC "-//W3C//DTD SVG 20010904//EN"
 "http://www.w3.org/TR/2001/REC-SVG-20010904/DTD/svg10.dtd">
<svg version="1.0" xmlns="http://www.w3.org/2000/svg"
 width="1554.000000pt" height="966.000000pt" viewBox="0 0 1554.000000 966.000000"
 preserveAspectRatio="xMidYMid meet">

<g transform="translate(0.000000,966.000000) scale(0.100000,-0.100000)"
fill="#000000" stroke="none">
<path d="M0 4830 l0 -4830 7770 0 7770 0 0 4830 0 4830 -7770 0 -7770 0 0
-4830z m9662 2337 c66 -33 146 -114 184 -188 23 -44 28 -67 27 -124 0 -78 -17
-125 -76 -212 -37 -56 -157 -193 -167 -193 -4 0 -12 35 -18 78 -40 258 -185
385 -474 418 -32 3 -58 11 -58 16 0 18 116 123 175 158 99 59 178 81 271 77
63 -2 93 -9 136 -30z m-544 -327 c17 0 32 -4 32 -8 0 -4 -380 -389 -844 -855
l-845 -848 -11 -57 c-7 -31 -14 -61 -17 -65 -3 -5 48 -62 113 -128 91 -92 124
-119 144 -119 52 0 153 49 203 98 53 52 52 45 29 174 -11 59 -19 69 -109 129
-40 28 -73 54 -73 60 0 5 64 72 143 147 776 751 1032 997 1224 1181 220 209
225 213 250 200 39 -21 98 -93 128 -157 23 -47 29 -74 32 -157 l5 -100 -811
-810 c-446 -445 -819 -813 -828 -817 -10 -4 -148 -39 -308 -78 -159 -38 -308
-75 -330 -81 -76 -21 -451 -10 -710 21 -413 50 -708 176 -781 335 -50 105 -21
219 78 318 68 68 124 106 245 166 120 60 200 89 415 151 150 44 276 94 303
121 19 19 -62 75 -168 117 -189 74 -506 155 -832 212 -192 34 -195 35 -195 73
0 18 6 41 14 52 16 22 60 19 271 -20 376 -70 706 -163 856 -241 169 -89 213
-178 134 -273 -32 -38 -165 -101 -285 -136 -358 -102 -543 -183 -650 -281 -72
-68 -90 -98 -90 -156 0 -68 42 -117 152 -176 191 -104 554 -167 1019 -177
l196 -4 33 122 c53 199 80 297 106 387 l24 85 803 803 802 803 50 -5 c28 -3
65 -6 83 -6z m-5267 -3197 c1 -159 1 -304 -1 -323 l-2 -34 42 38 c158 143 432
121 527 -41 46 -79 53 -138 53 -494 0 -289 -2 -328 -16 -333 -9 -3 -49 -6 -89
-6 -57 0 -74 3 -79 16 -3 9 -6 155 -6 326 0 214 -4 323 -12 351 -28 93 -131
144 -240 118 -68 -15 -112 -50 -146 -114 l-27 -52 -3 -317 -4 -317 -31 -6
c-18 -4 -57 -5 -87 -3 l-55 3 -3 725 c-1 399 0 731 3 738 3 8 31 12 90 12 l85
0 1 -287z m4607 -450 l2 -733 -23 -5 c-12 -3 -52 -5 -87 -3 l-65 3 -3 78 c-2
42 -7 77 -12 77 -5 0 -16 -13 -24 -29 -50 -95 -220 -162 -358 -140 -182 28
-327 170 -368 360 -18 80 -9 250 17 321 72 195 253 314 451 294 108 -11 212
-66 253 -133 12 -18 25 -31 30 -27 5 3 9 146 9 333 0 180 3 331 7 335 4 4 43
5 88 4 l80 -3 3 -732z m1740 0 l2 -732 -32 -6 c-18 -3 -60 -5 -93 -3 l-60 3
-3 725 c-1 399 0 731 3 738 3 9 28 12 92 10 l88 -3 3 -732z m-7168 616 c63
-12 182 -68 222 -103 47 -42 94 -112 108 -160 7 -26 10 -49 7 -52 -6 -7 -168
-46 -171 -42 -1 2 -15 29 -30 61 -47 99 -140 147 -281 147 -172 0 -265 -73
-265 -208 0 -59 2 -65 40 -106 50 -54 95 -73 286 -126 157 -43 285 -98 346
-150 21 -17 51 -59 69 -96 28 -57 32 -74 32 -147 -1 -155 -70 -266 -207 -331
-92 -45 -181 -60 -320 -54 -163 8 -286 57 -380 154 -36 37 -89 131 -100 176
-6 25 -3 28 36 38 24 6 64 18 90 25 53 15 53 16 87 -57 30 -64 95 -124 161
-150 44 -17 77 -22 161 -22 98 -1 109 1 165 29 47 25 64 40 87 80 56 101 20
216 -88 276 -27 15 -129 51 -225 79 -267 79 -355 132 -412 250 -34 69 -31 195
5 275 86 186 302 267 577 214z m6340 -1 c84 -16 192 -70 245 -122 47 -48 95
-134 95 -173 0 -23 -10 -27 -120 -52 -60 -14 -60 -14 -60 7 0 29 -56 107 -99
136 -118 82 -332 73 -418 -16 -39 -41 -53 -76 -53 -134 0 -52 16 -88 57 -126
36 -34 93 -58 218 -92 309 -84 405 -139 467 -263 30 -61 33 -76 33 -153 -1
-74 -5 -94 -32 -150 -72 -154 -219 -230 -449 -230 -116 0 -226 24 -307 67 -82
44 -169 136 -199 213 -31 77 -30 80 59 103 95 26 99 25 132 -40 37 -73 80
-114 156 -150 54 -25 71 -28 165 -28 95 0 110 3 163 28 78 39 110 87 115 171
6 116 -62 182 -242 237 -316 97 -380 124 -441 184 -73 73 -102 169 -85 278 12
80 36 132 87 188 105 116 293 159 513 117z m2433 -238 c1 -80 6 -151 10 -157
6 -9 39 -13 108 -13 l99 0 0 -70 0 -70 -105 0 c-102 0 -105 -1 -111 -24 -3
-13 -4 -141 -2 -283 3 -231 5 -261 22 -289 27 -45 53 -58 126 -64 l65 -5 3
-67 c3 -66 2 -68 -24 -74 -37 -10 -189 4 -227 20 -47 19 -95 63 -120 110 -21
39 -22 55 -27 356 l-5 315 -92 3 c-104 3 -103 3 -99 87 l3 50 64 8 c116 14
139 46 139 198 0 58 3 109 7 113 4 4 43 5 86 4 l79 -3 1 -145z m-6511 -179
c68 -26 132 -85 161 -149 20 -43 22 -68 27 -317 6 -308 10 -324 73 -339 l38
-10 -3 -60 -3 -61 -72 2 c-74 2 -118 17 -160 56 -13 11 -23 28 -23 38 0 32
-22 32 -46 1 -52 -66 -172 -114 -285 -114 -203 0 -319 134 -280 323 27 131
126 190 404 244 161 30 177 40 177 112 0 56 -24 103 -66 133 -53 35 -172 41
-237 10 -55 -26 -82 -57 -99 -112 -8 -27 -16 -37 -27 -34 -9 2 -44 10 -79 17
l-64 12 7 36 c14 75 76 155 149 193 100 52 296 61 408 19z m1718 15 c193 -46
300 -187 317 -416 l6 -90 -368 0 -368 0 6 -55 c10 -97 68 -184 151 -227 64
-33 178 -36 244 -8 47 20 110 77 137 123 9 16 17 16 70 7 111 -20 115 -26 65
-102 -87 -132 -216 -198 -385 -198 -227 0 -395 125 -451 335 -18 65 -18 246 0
311 30 115 121 231 219 280 99 51 245 67 357 40z m4024 -16 c75 -29 137 -86
167 -153 21 -49 23 -68 28 -328 7 -309 7 -312 78 -325 l34 -6 -3 -62 -3 -61
-72 1 c-94 2 -157 31 -181 83 -9 20 -18 38 -19 40 -1 2 -23 -15 -49 -38 -25
-24 -71 -55 -102 -69 -51 -24 -69 -27 -167 -27 -103 0 -113 2 -165 30 -77 43
-111 100 -118 200 -6 97 13 148 76 208 60 55 129 82 297 113 153 29 181 39
202 71 20 30 13 105 -14 142 -49 67 -189 93 -278 52 -49 -22 -68 -43 -95 -105
-14 -30 -26 -46 -35 -42 -7 2 -40 10 -74 17 -54 10 -61 14 -61 35 0 64 81 173
155 209 104 50 289 57 399 15z m1741 16 c200 -53 315 -215 315 -442 l0 -64
-366 0 -367 0 6 -50 c13 -110 82 -205 173 -240 72 -26 164 -26 224 1 48 21
130 95 130 115 0 7 4 15 9 18 9 6 160 -20 168 -28 10 -10 -52 -107 -96 -151
-83 -84 -190 -125 -327 -125 -231 0 -407 139 -453 358 -14 68 -14 196 0 264
36 171 163 303 332 344 70 17 191 17 252 0z m-6477 -78 l-3 -83 -45 -6 c-119
-17 -163 -42 -205 -114 -35 -58 -45 -157 -45 -437 l0 -227 -32 -6 c-18 -4 -58
-5 -88 -3 l-55 3 -3 473 -2 472 90 0 90 0 0 -77 c1 -71 2 -76 15 -58 61 84
162 140 258 144 l28 1 -3 -82z"/>
<path d="M7880 3243 c-26 -9 -66 -38 -97 -68 -67 -68 -98 -158 -91 -268 22
-340 416 -431 564 -131 26 53 29 69 29 154 -1 81 -5 103 -27 152 -29 63 -89
127 -146 154 -51 25 -172 29 -232 7z"/>
<path d="M5145 2870 c-172 -39 -187 -44 -225 -85 -20 -21 -25 -37 -25 -77 0
-44 4 -53 36 -83 92 -84 272 -36 341 91 28 52 55 172 41 184 -4 4 -80 -10
-168 -30z"/>
<path d="M6778 3264 c-75 -23 -168 -140 -168 -213 0 -8 74 -11 265 -11 l265 0
0 28 c0 75 -74 168 -157 198 -49 17 -146 16 -205 -2z"/>
<path d="M10950 2884 c-30 -8 -91 -21 -135 -30 -44 -9 -93 -23 -108 -31 -59
-30 -84 -112 -52 -173 45 -87 207 -85 312 4 43 36 83 121 90 190 l6 56 -29 -1
c-16 -1 -54 -7 -84 -15z"/>
<path d="M12546 3266 c-56 -17 -124 -81 -152 -140 -43 -92 -61 -86 246 -86
l270 0 -6 28 c-23 98 -80 169 -161 198 -46 16 -144 16 -197 0z"/>
</g>
</svg>
