<?xml version="1.0" standalone="no"?>
<!DOCTYPE svg PUBLIC "-//W3C//DTD SVG 20010904//EN"
 "http://www.w3.org/TR/2001/REC-SVG-20010904/DTD/svg10.dtd">
<svg version="1.0" xmlns="http://www.w3.org/2000/svg"
 width="1576.000000pt" height="1010.000000pt" viewBox="0 0 1576.000000 1010.000000"
 preserveAspectRatio="xMidYMid meet">

<g transform="translate(0.000000,1010.000000) scale(0.100000,-0.100000)"
fill="#000000" stroke="none">
<path d="M9565 7302 c-103 -31 -171 -71 -250 -143 -41 -39 -75 -75 -75 -79 0
-4 30 -11 68 -15 98 -10 149 -24 226 -62 81 -41 154 -110 190 -182 30 -57 56
-158 56 -213 0 -21 3 -38 6 -38 14 0 117 117 164 187 67 97 85 144 84 223 -1
80 -33 149 -106 227 -97 101 -227 136 -363 95z"/>
<path d="M8343 6170 c-571 -572 -802 -809 -806 -828 -2 -15 -28 -112 -57 -217
-29 -104 -60 -223 -70 -264 -11 -40 -21 -76 -24 -79 -20 -20 -574 14 -784 48
-216 35 -411 103 -506 175 -115 87 -97 205 46 311 122 89 291 160 598 249 235
68 340 139 340 228 0 53 -23 88 -86 134 -151 108 -495 212 -1008 303 -155 27
-171 29 -193 15 -17 -11 -23 -25 -23 -50 0 -42 14 -50 106 -65 508 -81 1071
-250 1082 -326 4 -30 -62 -67 -196 -109 -59 -18 -174 -54 -256 -80 -300 -94
-506 -226 -577 -371 -28 -57 -31 -71 -26 -124 13 -146 134 -250 392 -337 171
-58 395 -92 740 -113 274 -17 282 -16 549 49 132 32 295 71 361 86 l120 28
806 806 c791 790 807 807 813 851 16 119 -38 266 -125 344 -28 25 -56 46 -62
46 -6 0 -63 -51 -126 -112 -285 -276 -431 -418 -641 -618 -225 -215 -462 -444
-703 -680 l-128 -125 85 -60 c83 -58 85 -61 100 -120 33 -127 33 -124 -27
-183 -42 -42 -70 -59 -123 -78 -38 -13 -75 -23 -82 -24 -14 0 -252 232 -252
245 0 4 7 35 16 69 l15 61 840 840 c461 462 839 846 839 853 0 6 -11 12 -24
12 -12 0 -50 3 -82 6 l-59 6 -802 -802z"/>
<path d="M3857 4054 c-4 -4 -7 -335 -7 -736 l0 -728 90 0 90 0 0 301 c0 188 4
317 11 344 38 151 238 215 354 114 60 -53 65 -89 65 -446 l0 -313 90 0 90 0 0
348 c0 373 -4 411 -53 482 -30 46 -98 97 -150 112 -23 7 -80 13 -127 12 -100
-1 -170 -27 -239 -89 l-41 -37 0 316 0 316 -69 0 c-38 0 -76 2 -83 5 -8 3 -17
2 -21 -1z"/>
<path d="M8447 4043 c-4 -3 -7 -154 -7 -335 l0 -329 -57 59 c-173 176 -478
137 -624 -81 -56 -85 -81 -171 -81 -287 -1 -218 85 -376 250 -457 74 -37 79
-38 182 -37 87 0 114 4 155 23 60 27 128 81 152 121 9 17 21 30 25 30 4 0 8
-36 8 -80 l0 -80 84 0 83 0 6 68 c4 37 7 365 7 730 l0 662 -88 0 c-49 0 -92
-3 -95 -7z m-174 -676 c61 -25 130 -101 156 -173 29 -76 29 -193 -1 -271 -31
-84 -115 -166 -193 -189 -51 -14 -68 -15 -126 -4 -95 16 -161 64 -208 150 -31
57 -36 74 -39 153 -6 119 15 191 76 258 52 59 87 79 162 95 65 13 107 9 173
-19z"/>
<path d="M10175 4040 c-6 -10 -3 -1188 3 -1362 l3 -88 90 0 89 0 0 730 0 730
-89 0 c-50 0 -93 -5 -96 -10z"/>
<path d="M2982 3949 c-133 -17 -224 -60 -293 -137 -59 -65 -83 -135 -82 -237
1 -177 98 -275 348 -350 241 -72 291 -90 333 -120 55 -38 92 -102 92 -160 0
-55 -41 -134 -84 -163 -121 -82 -354 -61 -456 40 -42 42 -80 105 -80 132 0 25
-11 25 -105 1 -105 -27 -105 -28 -55 -132 37 -75 116 -150 203 -193 210 -103
521 -70 666 70 63 62 94 136 99 240 5 115 -18 178 -91 247 -71 67 -151 104
-357 164 -188 55 -260 87 -292 131 -77 108 -18 254 119 294 69 20 208 15 266
-10 56 -25 123 -91 143 -142 9 -24 21 -44 27 -44 6 0 46 10 89 21 l79 21 -7
32 c-19 90 -108 193 -209 241 -99 47 -244 69 -353 54z"/>
<path d="M9315 3949 c-102 -11 -187 -41 -245 -87 -103 -82 -133 -146 -134
-282 -1 -80 3 -102 22 -142 29 -59 93 -118 169 -156 59 -30 83 -38 278 -93
220 -62 298 -126 297 -245 -1 -131 -106 -214 -271 -214 -166 0 -298 82 -341
213 -10 33 -15 38 -34 32 -11 -3 -51 -14 -88 -23 -36 -10 -69 -20 -72 -23 -12
-11 23 -102 60 -155 88 -127 260 -204 459 -204 169 0 308 51 393 145 65 71 87
133 86 245 0 108 -26 170 -96 235 -63 60 -137 93 -350 155 -255 76 -316 116
-326 219 -12 129 98 221 267 221 135 0 232 -52 284 -150 15 -30 30 -56 31 -58
6 -6 158 36 169 47 14 14 -42 129 -87 179 -91 100 -290 160 -471 141z"/>
<path d="M11797 3844 c-4 -4 -7 -51 -7 -105 0 -163 -23 -194 -148 -208 l-57
-6 -3 -67 -3 -67 98 -3 98 -3 5 -315 c6 -354 7 -360 81 -424 52 -44 98 -56
213 -56 l96 0 0 69 0 68 -71 6 c-78 7 -98 18 -123 72 -13 28 -16 79 -16 309
l0 276 105 0 105 0 0 70 0 69 -102 3 -103 3 -5 155 -5 155 -75 3 c-42 1 -79 0
-83 -4z"/>
<path d="M5164 3536 c-69 -16 -127 -43 -172 -81 -32 -27 -79 -112 -84 -155 -3
-22 2 -26 47 -36 28 -7 64 -13 81 -13 27 -1 32 3 37 29 9 42 72 108 115 120
21 5 66 10 101 10 51 0 73 -5 108 -25 67 -40 99 -124 69 -183 -18 -36 -56 -49
-228 -82 -194 -37 -277 -80 -322 -171 -20 -42 -26 -67 -26 -121 0 -80 18 -129
63 -176 59 -62 99 -76 217 -76 122 -1 177 18 268 92 30 24 54 42 55 40 50 -99
80 -117 195 -118 l72 0 0 65 c0 64 0 65 -27 65 -67 1 -73 23 -73 272 0 117 -5
242 -10 278 -21 133 -91 221 -203 256 -72 22 -208 27 -283 10z m323 -553 c-3
-33 -19 -83 -37 -120 -25 -51 -42 -71 -86 -100 -167 -111 -358 -13 -281 145
15 31 66 56 157 76 41 9 111 25 155 35 44 11 84 19 89 20 5 1 6 -25 3 -56z"/>
<path d="M6975 3544 c-118 -19 -229 -81 -289 -163 -22 -29 -52 -89 -67 -134
-49 -139 -38 -321 26 -447 76 -151 248 -238 447 -227 112 6 209 49 285 125 48
50 103 136 92 146 -11 12 -163 39 -166 30 -12 -36 -51 -80 -100 -112 -55 -35
-62 -37 -143 -37 -71 0 -93 4 -134 25 -91 46 -150 134 -158 236 l-3 39 363 3
c315 2 363 4 369 18 9 24 -16 190 -38 249 -40 107 -123 187 -234 226 -57 20
-189 32 -250 23z m222 -170 c55 -34 102 -103 110 -163 l6 -41 -267 0 c-261 0
-266 0 -266 20 0 66 64 150 143 191 57 28 68 30 144 27 69 -4 89 -9 130 -34z"/>
<path d="M10914 3540 c-112 -16 -206 -82 -250 -175 -35 -73 -32 -93 14 -100
20 -4 53 -11 72 -16 39 -10 42 -8 60 41 30 80 97 120 200 120 117 0 185 -51
196 -147 5 -39 2 -53 -15 -74 -22 -29 -34 -32 -231 -70 -135 -25 -221 -62
-272 -115 -90 -94 -92 -251 -6 -349 54 -61 108 -80 228 -80 86 0 102 3 161 31
37 18 86 49 109 70 24 22 45 35 47 29 2 -5 12 -24 23 -42 31 -52 63 -66 155
-71 94 -5 94 -5 91 78 -1 42 -3 44 -35 51 -66 14 -65 11 -72 312 -5 221 -9
281 -23 318 -55 149 -228 222 -452 189z m306 -545 c0 -95 -62 -202 -146 -251
-82 -48 -215 -33 -258 28 -23 33 -21 109 5 142 31 40 61 51 224 86 83 18 152
34 154 36 14 13 21 -1 21 -41z"/>
<path d="M12705 3540 c-121 -25 -226 -90 -283 -175 -59 -90 -76 -148 -80 -282
-4 -133 8 -193 55 -286 106 -209 412 -291 636 -170 77 42 207 196 185 219 -7
6 -116 33 -138 34 -9 0 -32 -22 -53 -50 -47 -63 -118 -101 -202 -107 -152 -13
-266 74 -302 229 -7 32 -11 63 -8 68 4 6 148 10 366 10 280 0 359 3 360 13 3
49 -4 150 -13 187 -29 119 -105 223 -199 270 -80 41 -227 59 -324 40z m221
-153 c67 -35 119 -107 131 -183 l6 -34 -272 0 -272 0 6 23 c28 97 93 174 171
203 51 19 187 14 230 -9z"/>
<path d="M6373 3525 c-64 -19 -127 -60 -167 -106 l-35 -42 -3 74 -3 74 -87 3
-88 3 0 -471 0 -470 89 0 89 0 5 288 c3 168 9 302 16 323 30 95 107 154 219
165 l62 7 0 83 0 84 -27 -1 c-16 0 -47 -6 -70 -14z"/>
</g>
</svg>
