<?xml version="1.0" standalone="no"?>
<!DOCTYPE svg PUBLIC "-//W3C//DTD SVG 20010904//EN"
 "http://www.w3.org/TR/2001/REC-SVG-20010904/DTD/svg10.dtd">
<svg version="1.0" xmlns="http://www.w3.org/2000/svg"
 width="2964.000000pt" height="1961.000000pt" viewBox="0 0 2964.000000 1961.000000"
 preserveAspectRatio="xMidYMid meet">

<g transform="translate(0.000000,1961.000000) scale(0.100000,-0.100000)"
fill="#000000" stroke="none">
<path d="M24706 17883 c-4 -5 -38 -11 -74 -15 -37 -4 -92 -11 -122 -17 -51 -9
-73 -14 -185 -42 -22 -5 -56 -14 -75 -18 -47 -11 -206 -65 -250 -84 -19 -9
-75 -32 -125 -53 -384 -158 -778 -426 -1095 -744 -166 -167 -359 -408 -344
-431 3 -5 94 -9 202 -9 181 0 247 -5 437 -31 278 -38 572 -112 795 -200 30
-11 72 -27 93 -35 40 -15 270 -131 327 -166 76 -46 248 -163 295 -202 90 -75
306 -290 361 -361 138 -178 243 -355 324 -546 51 -120 105 -273 122 -344 10
-43 23 -95 39 -160 10 -38 15 -68 40 -225 18 -119 29 -244 35 -400 3 -85 9
-159 13 -163 8 -8 391 384 537 548 351 396 554 678 697 970 94 192 153 355
181 505 21 117 38 294 31 333 -3 17 -10 73 -15 122 -10 96 -22 168 -38 225
-98 337 -304 666 -632 1003 -138 143 -283 256 -420 328 -30 16 -62 33 -70 38
-125 71 -328 132 -559 167 -100 15 -512 20 -525 7z"/>
<path d="M17444 11438 c-3492 -3493 -4474 -4481 -4483 -4508 -6 -19 -17 -61
-26 -92 -8 -32 -21 -82 -29 -110 -8 -29 -24 -89 -36 -133 -22 -83 -40 -147
-65 -240 -8 -30 -22 -80 -30 -110 -25 -93 -43 -157 -65 -240 -31 -114 -62
-230 -96 -353 -8 -31 -24 -88 -34 -127 -17 -66 -31 -115 -66 -245 -9 -30 -25
-89 -35 -130 -11 -41 -24 -88 -29 -105 -5 -16 -18 -66 -30 -110 -12 -44 -25
-93 -30 -110 -5 -16 -18 -66 -30 -110 -12 -44 -26 -96 -31 -115 -6 -19 -14
-51 -19 -70 -5 -19 -13 -51 -19 -70 -5 -19 -19 -71 -31 -115 -12 -44 -25 -93
-30 -110 -5 -16 -18 -66 -30 -110 -12 -44 -25 -93 -30 -110 -5 -16 -18 -66
-30 -110 -12 -44 -26 -96 -31 -115 -6 -19 -14 -51 -19 -70 -5 -19 -14 -53 -20
-75 -6 -22 -14 -50 -17 -62 -7 -28 -7 -28 -50 -2 -72 45 -118 48 -638 49 -269
0 -587 4 -705 10 -118 5 -341 14 -495 20 -154 6 -342 15 -418 20 -578 41 -686
49 -787 60 -100 11 -229 25 -355 39 -49 6 -135 15 -190 21 -117 13 -228 27
-305 40 -30 5 -91 14 -135 20 -44 6 -107 15 -140 20 -33 5 -94 14 -135 20 -41
6 -95 15 -120 20 -25 4 -74 14 -110 20 -36 6 -83 15 -105 20 -22 5 -69 14
-105 20 -36 6 -83 15 -105 20 -22 5 -67 13 -100 20 -58 11 -193 41 -265 60
-19 5 -109 27 -200 50 -91 22 -208 53 -260 69 -52 16 -142 44 -200 61 -428
128 -947 370 -1230 572 -268 192 -444 399 -509 597 -36 109 -27 321 19 436 97
247 354 552 640 761 30 22 80 59 110 81 68 51 311 206 405 259 39 21 84 47
100 56 49 29 437 223 480 240 22 9 69 30 105 46 99 46 270 118 320 135 25 8
81 30 125 47 44 18 91 36 105 40 14 5 90 32 170 60 194 69 382 131 510 170 58
17 116 35 130 40 36 13 145 44 310 90 80 22 161 45 180 50 19 5 100 28 180 50
80 22 161 45 180 50 19 5 85 24 145 40 287 81 597 184 723 241 34 16 65 29 67
29 9 0 141 62 249 117 207 104 371 218 501 348 72 72 164 213 186 287 43 142
50 232 25 348 -33 157 -95 256 -261 425 -158 160 -295 256 -617 434 -232 127
-589 284 -890 390 -125 44 -240 85 -338 119 -47 17 -132 44 -190 62 -58 17
-116 35 -130 40 -14 5 -72 23 -130 40 -58 17 -116 35 -130 40 -14 5 -61 19
-105 30 -90 24 -143 39 -353 96 -57 15 -494 128 -564 145 -21 5 -56 14 -78 19
-66 17 -112 27 -170 40 -123 27 -173 38 -260 59 -19 5 -60 14 -90 21 -30 7
-73 16 -95 21 -22 5 -62 14 -90 19 -27 5 -70 14 -95 20 -25 6 -67 14 -95 20
-27 5 -90 18 -140 29 -49 10 -126 26 -170 35 -184 37 -222 44 -345 66 -36 6
-85 16 -110 20 -82 16 -227 44 -317 60 -29 6 -79 15 -110 21 -130 24 -195 36
-333 59 -33 6 -87 15 -120 20 -33 6 -87 15 -120 20 -33 6 -87 15 -120 20 -33
6 -86 14 -117 20 -32 5 -89 14 -128 21 -38 6 -89 15 -112 20 -61 13 -202 11
-243 -4 -96 -35 -166 -103 -200 -193 -46 -124 -16 -258 77 -351 70 -71 115
-85 428 -133 39 -6 95 -15 125 -20 30 -5 89 -14 130 -21 41 -6 95 -14 120 -19
25 -5 74 -14 110 -20 36 -6 89 -15 118 -20 28 -6 76 -14 105 -20 28 -5 81 -14
117 -20 114 -20 174 -31 215 -40 22 -5 69 -14 105 -20 36 -6 83 -15 105 -20
22 -5 69 -14 105 -20 36 -6 85 -16 110 -21 25 -5 81 -17 125 -25 44 -9 96 -20
115 -24 19 -4 71 -15 115 -24 44 -9 99 -21 123 -26 23 -6 62 -14 87 -20 25 -5
65 -14 90 -20 25 -5 64 -14 88 -19 23 -5 63 -14 90 -20 26 -6 67 -15 92 -21
25 -5 65 -14 90 -20 25 -5 64 -14 88 -19 110 -24 293 -67 347 -81 19 -5 94
-23 165 -40 151 -36 148 -35 243 -61 39 -10 105 -28 145 -38 110 -30 294 -80
402 -111 19 -5 51 -14 70 -20 19 -5 50 -14 68 -19 50 -14 294 -87 372 -111 39
-12 84 -25 100 -30 97 -27 166 -49 365 -120 80 -29 156 -56 170 -60 14 -5 63
-23 110 -40 47 -17 96 -35 110 -40 70 -23 184 -69 288 -116 29 -13 55 -24 58
-24 3 0 54 -24 113 -54 271 -135 445 -257 503 -351 33 -55 25 -84 -44 -151
-124 -120 -284 -209 -598 -334 -127 -50 -458 -161 -595 -200 -201 -56 -241
-67 -285 -80 -14 -5 -63 -18 -110 -30 -47 -12 -114 -30 -150 -40 -36 -10 -103
-28 -150 -40 -145 -39 -293 -80 -350 -100 -30 -10 -102 -33 -160 -50 -125 -38
-263 -84 -420 -140 -63 -22 -151 -54 -195 -69 -44 -16 -138 -52 -210 -81 -71
-28 -150 -59 -175 -67 -42 -14 -65 -24 -208 -89 -31 -15 -97 -44 -147 -66
-112 -49 -483 -232 -550 -271 -27 -17 -63 -38 -80 -47 -159 -92 -223 -132
-370 -230 -403 -269 -776 -628 -949 -913 -107 -177 -187 -376 -225 -565 -14
-70 -14 -359 0 -436 61 -323 217 -599 480 -851 144 -137 182 -168 364 -294
182 -126 504 -297 720 -383 27 -11 72 -30 100 -42 27 -12 75 -32 105 -43 30
-12 87 -33 125 -48 92 -36 358 -123 535 -175 41 -12 86 -26 100 -30 14 -5 66
-18 115 -30 50 -11 106 -25 125 -30 19 -5 56 -14 83 -19 26 -6 68 -16 95 -22
26 -5 63 -14 82 -19 33 -8 66 -16 175 -40 25 -5 65 -14 90 -20 98 -22 133 -29
200 -40 39 -6 90 -15 115 -20 25 -4 79 -14 120 -20 41 -6 93 -15 115 -20 50
-11 212 -35 388 -59 42 -6 112 -16 155 -22 42 -5 104 -14 137 -19 113 -16 289
-36 530 -60 61 -6 148 -15 195 -20 131 -14 318 -29 510 -40 96 -6 240 -15 320
-20 80 -5 260 -14 400 -20 140 -6 341 -15 445 -20 257 -14 1212 -13 1273 1 26
5 63 14 82 19 19 5 94 23 165 40 72 17 146 35 165 40 19 5 94 23 165 40 72 17
146 35 165 40 19 5 112 28 205 50 94 22 186 45 205 50 19 5 94 23 165 40 72
17 146 35 165 40 19 5 94 23 165 40 72 17 146 35 165 40 19 5 94 23 165 40 72
17 146 35 165 40 19 5 110 27 203 50 92 22 240 58 330 79 89 22 227 56 307 75
80 19 219 53 310 75 91 22 251 60 355 86 105 25 217 52 250 60 l60 15 4537
4537 4536 4536 6 51 c14 113 18 562 6 671 -22 206 -53 349 -125 570 -26 80
-97 249 -127 304 -17 31 -42 76 -55 101 -66 119 -215 309 -340 430 -144 142
-195 184 -305 258 -71 48 -111 63 -120 45 -2 -5 -60 -62 -128 -128 -176 -169
-384 -369 -530 -510 -154 -147 -374 -359 -540 -520 -69 -66 -190 -183 -270
-260 -80 -76 -201 -193 -270 -260 -69 -66 -190 -183 -270 -260 -80 -76 -201
-193 -270 -260 -69 -66 -190 -183 -270 -260 -80 -76 -201 -193 -270 -260 -342
-329 -425 -408 -540 -520 -69 -66 -244 -235 -390 -375 -332 -319 -456 -438
-645 -620 -82 -80 -204 -197 -270 -260 -127 -123 -325 -313 -540 -520 -71 -69
-136 -132 -145 -140 -9 -8 -74 -71 -145 -140 -122 -117 -241 -232 -545 -525
-346 -332 -425 -408 -540 -520 -69 -66 -242 -233 -385 -370 -143 -137 -314
-302 -380 -365 -114 -111 -260 -250 -535 -515 -69 -67 -190 -184 -270 -260
-80 -77 -201 -194 -270 -260 -69 -67 -188 -182 -265 -256 -77 -74 -170 -164
-207 -199 -38 -35 -68 -68 -68 -74 0 -6 49 -43 108 -83 59 -40 172 -117 252
-173 80 -55 204 -141 275 -190 72 -49 177 -122 234 -162 118 -82 102 -53 150
-268 31 -136 37 -164 61 -265 12 -49 25 -109 31 -132 24 -109 31 -140 39 -173
5 -19 13 -55 19 -80 5 -25 14 -65 20 -90 22 -91 21 -92 -54 -172 -39 -40 -135
-143 -215 -228 -79 -85 -178 -190 -220 -232 l-75 -77 -210 -71 c-115 -39 -259
-87 -320 -107 -60 -19 -118 -39 -127 -44 -10 -5 -27 -9 -37 -9 -11 0 -23 -4
-26 -10 -3 -5 -17 -10 -30 -10 -13 0 -27 -4 -30 -10 -3 -5 -17 -10 -30 -10
-13 0 -27 -4 -30 -10 -3 -5 -15 -10 -26 -10 -10 0 -28 -6 -39 -12 -18 -12 -76
43 -706 673 l-686 686 10 54 c6 30 14 68 17 84 3 17 10 46 15 65 5 19 13 55
19 80 15 68 39 173 55 243 8 34 23 96 32 137 l17 75 4758 4760 c2618 2618
4759 4766 4759 4772 0 7 -12 15 -27 18 -16 3 -48 10 -73 15 -102 20 -188 31
-478 60 -56 5 -180 10 -275 10 l-172 0 -4471 -4472z"/>
</g>
</svg>
